/* XPM */
static char *host_64[] = {
/* width height ncolors chars_per_pixel */
"64 64 470 2",
/* colors */
"   c #B1B1B1",
" . c #878B95",
" X c #506380",
" o c #C7CDE1",
" O c #AFAFAF",
" + c #325573",
" @ c #BFBFC2",
" # c #787879",
" $ c #ADADAD",
" % c #ABABAB",
" & c #6F737A",
" * c #A9A9A9",
" = c #A7A7A7",
" - c #B8B7BB",
" ; c #A5A5A5",
" : c #DBD8DA",
" > c #3369A2",
" , c #879BC3",
" < c #6E6E6F",
" 1 c #164875",
" 2 c #4F77AD",
" 3 c #A3A3A3",
" 4 c #B4B3B7",
" 5 c #6A87B7",
" 6 c #6C6C6D",
" 7 c #A1A1A1",
" 8 c #B2BCD6",
" 9 c #9F9F9F",
" 0 c #4A6287",
" q c #26649F",
" w c #9D9D9D",
" e c #9B9B9B",
" r c #656666",
" t c #C1C9DE",
" y c #999999",
" u c #AAA9AD",
" i c #6F737D",
" p c #3E6EA6",
" a c #A9A9AC",
" s c #3D6EA5",
" d c #989798",
" f c #758EBB",
" g c #979797",
" h c #2B2D2D",
" j c #748EBA",
" k c #175D9A",
" l c #165D99",
" z c #DBDADD",
" x c #949394",
" c c #939393",
" v c #A0ADCE",
" b c #5C5C5D",
" n c #919191",
" m c #395876",
" M c #8F8F8F",
" N c #114673",
" B c #8B8B8B",
" V c #21629D",
" C c #898989",
" Z c #878787",
" A c #505051",
" S c #858585",
" D c #396CA4",
" F c #838383",
" G c #547AAE",
" H c #BAC3DA",
" J c #C8C6CA",
" K c #818181",
" L c #4A4A4B",
" P c #7F7F7F",
" I c #7D7D7D",
" U c #7B7B7B",
" Y c #9DA8C4",
" T c #7A797A",
" R c #C0BEC2",
" E c #797979",
" W c #6081B3",
" Q c #777777",
" ! c #295173",
" ~ c #1D609C",
" ^ c #757575",
" / c #737373",
" ( c #EEEDEF",
" ) c #727172",
" _ c #6C7076",
" ` c #717171",
" ' c #888FA2",
" ] c #899CC4",
" [ c #346AA2",
" { c #889CC3",
" } c #393A3A",
" | c #5078AD",
".  c #7F7F82",
".. c #6B88B7",
".X c #6D6D6D",
".o c #6B6B6B",
".O c #E6E5E7",
".+ c #27659F",
".@ c #696969",
".# c #676767",
".$ c #72767F",
".% c #767779",
".& c #C3CADF",
".* c #656565",
".= c #AAAAAC",
".- c #2E2E2F",
".; c #737576",
".: c #636363",
".> c #636E84",
"., c #616161",
".< c #5F5F5F",
".1 c #A5A4A7",
".2 c #A4A4A6",
".3 c #6D6F70",
".4 c #5D5D5D",
".5 c #A3A2A5",
".6 c #5B5B5B",
".7 c #A1A0A3",
".8 c #6786B6",
".9 c #595959",
".0 c #575757",
".q c #AFB9D5",
".w c #23639E",
".e c #555555",
".r c #556476",
".t c #9B9A9D",
".y c #535353",
".u c #90A1C7",
".i c #245E95",
".p c #969698",
".a c #4F4F4F",
".s c #959497",
".d c #949496",
".f c #435C78",
".g c #4D4D4D",
".h c #939295",
".j c #4B4B4B",
".k c #909092",
".l c #494949",
".z c #9CAACC",
".x c #C4C3C5",
".c c #8E8E90",
".v c #474747",
".b c #C3C1C4",
".n c #5B6775",
".m c #454545",
".M c #F6F6F6",
".N c #4672A9",
".B c #434343",
".V c #BDBDBE",
".C c #414141",
".Z c #F2F2F2",
".A c #A9B5D2",
".S c #3F3F3F",
".D c #B9B9BA",
".F c #8990A2",
".G c #366BA3",
".H c #8A9DC4",
".J c #EDECED",
".K c #3B3B3B",
".L c #818083",
".P c #6D89B8",
".I c #6C89B7",
".U c #EAEAEA",
".Y c #E8E8E8",
".T c #353535",
".R c #AFAFB0",
".E c #333333",
".W c #CBCEDC",
".Q c #315573",
".! c #96A6C9",
".~ c #ADADAE",
".^ c #E2E2E2",
"./ c #C4CBDF",
".( c #6D7483",
".) c #4170A7",
"._ c #ABABAC",
".` c #2F2F2F",
".' c #7890BC",
".] c #DFDEDF",
".[ c #2D2D2D",
".{ c #2B2B2B",
".} c #DCDCDC",
".| c #818286",
"X  c #292929",
"X. c #D8D8D8",
"XX c #536787",
"Xo c #8499C1",
"XO c #A1A1A2",
"X+ c #6C778F",
"X@ c #9F9FA0",
"X# c #25649F",
"X$ c #D2D2D2",
"X% c #77787C",
"X& c #666668",
"X* c #9B9B9C",
"X= c #CFCECF",
"X- c #636465",
"X; c #526372",
"X: c #CECECE",
"X> c #5E6E8B",
"X, c #CCCCCC",
"X< c #587CB0",
"X1 c #959596",
"X2 c #CACACA",
"X3 c #5E5E60",
"X4 c #C8C8C8",
"X5 c #C6C6C6",
"X6 c #908F91",
"X7 c #2E67A1",
"X8 c #C4C4C4",
"X9 c #D5D4D8",
"X0 c #8E8D8F",
"Xq c #C2C2C2",
"Xw c #565858",
"Xe c #4773A9",
"Xr c #8C8B8D",
"Xt c #6383B4",
"Xy c #C0C0C0",
"Xu c #D1D0D4",
"Xi c #8A898B",
"Xp c #BEBEBE",
"Xa c #ABB6D3",
"Xs c #888789",
"Xd c #878788",
"Xf c #BCBCBC",
"Xg c #868587",
"Xh c #858586",
"Xj c #BABABA",
"Xk c #8B9EC4",
"Xl c #B8B8B8",
"Xz c #828383",
"Xx c #537AAE",
"Xc c #6E8AB8",
"Xv c #B6B6B6",
"Xb c #4A4C4C",
"Xn c #B8C1D9",
"Xm c #6A6E72",
"XM c #B5B4B5",
"XN c #B4B4B4",
"XB c #7E7D7F",
"XV c #B2B2B2",
"XC c #888C96",
"XZ c #7B7B7C",
"XA c #B0B0B0",
"XS c #444646",
"XD c #98A7CA",
"XF c #56729D",
"XG c #74787F",
"XH c #586674",
"XJ c #AEAEAE",
"XK c #424444",
"XL c #4371A8",
"XP c #5F81B3",
"XI c #787779",
"XU c #7A91BD",
"XY c #135186",
"XT c #ACACAC",
"XR c #404242",
"XE c #677286",
"XW c #757576",
"XQ c #AAAAAA",
"X! c #BABABD",
"X~ c #747375",
"X^ c #A6B2D1",
"X/ c #A8A8A8",
"X( c #A5B2D0",
"X) c #A6A6A6",
"X_ c #A4A4A4",
"X` c #A4A2A4",
"X' c #A2A2A2",
"X] c #6C6D6D",
"X[ c #7C7D80",
"X{ c #6B6B6C",
"X} c #B3BDD7",
"X| c #A0A0A0",
"o  c #B1B0B4",
"o. c #9F9E9F",
"oX c #9E9E9E",
"oo c #676768",
"oO c #9C9C9C",
"o+ c #ADACB0",
"o@ c #9A9A9A",
"o# c #989898",
"o$ c #5A7DB1",
"o% c #597DB0",
"o& c #969696",
"o* c #949494",
"o= c #DAD9DC",
"o- c #D0D5E6",
"o; c #929292",
"o: c #2F68A1",
"o> c #909090",
"o, c #7C88A4",
"o< c #5F6977",
"o1 c #4A74AB",
"o2 c #8E8E8E",
"o3 c #9F9EA2",
"o4 c #8196C0",
"o5 c #4974AA",
"o6 c #9E9EA1",
"o7 c #6484B4",
"o8 c #575758",
"o9 c #8C8C8C",
"o0 c #5A6772",
"oq c #8A8A8A",
"ow c #ACB7D3",
"oe c #888888",
"or c #868686",
"ot c #8D9FC5",
"oy c #CBC9CD",
"ou c #848484",
"oi c #386BA3",
"op c #708BB9",
"oa c #636D7E",
"os c #828282",
"od c #818081",
"of c #808080",
"og c #C6C5C8",
"oh c #506689",
"oj c #7E7E7E",
"ok c #7C7C7C",
"ol c #99A8CA",
"oz c #767980",
"ox c #7A7A7A",
"oc c #787878",
"ov c #7B92BD",
"ob c #767676",
"on c #BCBBBE",
"om c #F1F0F2",
"oM c #747474",
"oN c #A7B3D1",
"oB c #727272",
"oV c #707070",
"oC c #B6B5B8",
"oZ c #3E5A77",
"oA c #6E6E6E",
"oS c #6D6C6D",
"oD c #B5BED8",
"oF c #6C6C6C",
"oG c #B1B1B3",
"oH c #6A6A6A",
"oJ c #B0AFB2",
"oK c #E5E4E6",
"oL c #797A7C",
"oP c #686868",
"oI c #E3E2E4",
"oU c #666666",
"oY c #94A4C8",
"oT c #646464",
"oR c #5B7EB1",
"oE c #636263",
"oW c #646F85",
"oQ c #626262",
"o! c #A8A7AA",
"o~ c #415C7D",
"o^ c #185D9A",
"o/ c #606060",
"o( c #D2D6E7",
"o) c #5E5E5E",
"o_ c #5C5C5C",
"o` c #D7D6D8",
"o' c #5A5A5A",
"o] c #4B75AB",
"o[ c #A09FA2",
"o{ c #8297C0",
"o} c #585858",
"o| c #9D9D9F",
"O  c #AFBAD5",
"O. c #565656",
"OX c #545454",
"Oo c #526373",
"OO c #525252",
"O+ c #98979A",
"O@ c #727478",
"O# c #577CB0",
"O$ c #3A6CA4",
"O% c #4E4E4E",
"O& c #718CB9",
"O* c #FFFFFF",
"O= c #6D7073",
"O- c #4C4C4C",
"O; c #194973",
"O: c #7389B1",
"O> c #FCFBFC",
"O, c #8B8E97",
"O< c #C5C4C6",
"O1 c #9BA9CB",
"O2 c #CAD0E2",
"O3 c #F7F7F7",
"O4 c #444444",
"O5 c #7C93BD",
"O6 c #BEBEBF",
"O7 c #878789",
"O8 c #404040",
"O9 c #BCBABD",
"O0 c #A8B4D1",
"Oq c #BBBABC",
"Ow c #EFEFEF",
"Oe c #3C3C3C",
"Or c #898FA2",
"Ot c #807F82",
"Oy c #B4B4B5",
"Ou c #383838",
"Oi c #B6BFD8",
"Op c #E7E7E7",
"Oa c #E5E5E5",
"Os c #323232",
"Od c #C5CCE0",
"Of c #303030",
"Og c #5D7FB2",
"Oh c #5C7FB1",
"Oj c #1A5E9B",
"Ok c #A8A8A9",
"Ol c #DCDBDC",
"Oz c #D3D7E7",
"Ox c #A3B0CF",
"Oc c #DBDBDB",
"Ov c #D9D9D9",
"Ob c #A3A2A4",
"On c #859AC2",
"Om c #787C87",
"OM c #D7D7D7",
"ON c #4D76AC",
"OB c #838B9F",
"OV c #4C76AB",
"OC c #6886B6",
"OZ c #D3D3D3",
"OA c #24639E",
"OS c #9A9A9B",
"OD c #CFCFCF",
"OF c #506E9B",
"OG c #CDCDCD",
"OH c #3B6DA4",
"OJ c #BEC6DC",
"OK c #CBCBCB",
"OL c #959496",
"OP c #5F5F61",
"OI c #949495",
"OU c #939294",
"OY c #385880",
"OT c #C7C7C7",
"OR c #5B5D5D",
"OE c #CDD3E4",
"OW c #909091",
"OQ c #C5C5C5",
"O! c #8F8E90",
"O~ c #8C8C8D",
"O^ c #565758",
"O/ c #C1C1C1",
"O( c #7E94BE",
"O) c #BFBFBF",
"O_ c #D0CFD3",
"O` c #20619D",
"O' c #496FA1",
"O] c #BDBDBD",
"O[ c #BBBBBB",
"O{ c #848485",
"O} c #214D73",
"O| c #B9B9B9",
"+  c #7A808F",
"+. c #B7B7B7",
"+X c #C8C7CB",
"+o c #818082",
"+O c #808081",
"++ c #B5B5B5",
"+@ c #48494A",
"+# c #B3B3B3",
"+$ c #2A66A0",
"+% c None",
/* pixels */
"+%+%+%+%+%+%+%+%+%+%+%+%+%+%+%+%+%+%+%+%+%+%+%+%+%+%+%+%+%+%+%+%+%+%+%+%+%+%+%+%+%+%+%+%+%+%+%+%+%+%+%+%+%+%+%+%+%+%+%+%+%+%+%+%",
"+%+%+%+%+%+%+%+%+%+%+%+%+%+%+%+%+%+%+%+%+%+%+%+%+%+%+%+%+%+%+%+%+%+%+%+%+%+%+%+%+%+%+%+%+%+%+%+%+%+%+%+%+%+%+%+%+%+%+%+%+%+%+%+%",
"+%+%+%+%+%+%+%+%+%+%+%+%+%+%+%+%+%+%+%+%+%+%+%+%+%+%+%+%+%+%+%+%+%+%+%+%+%+%+%+%+%+%+%+%+%+%+%+%+%+%+%+%+%+%+%+%+%+%+%+%+%+%+%+%",
"+%+%+%+%+%+%+%+%+%+%+%+%+%+%+%+%+%+%+%+%+%+%+%+%+%+%+%+%+%+%+%+%+%+%+%+%+%+%+%+%+%+%+%+% P P PoV.o.o.o.o.j.C+%+%+%+%+%+%+%+%+%+%",
"+%+%+%+%+%+%+%+%+%+%+%+%+%+%+%+%+%+%+%+%+%+%+%+%+%+%+% P P P P.oob /oBO%.,o)o_oUor S FosXTXT % % %XTXTXTXT g+%+%+%+%+%+%+%+%+%+%",
"+%+%+%+%+%+%+%+%+%+%+%+%+% PoFoVoVoVo/oFoFoMoM+%XvXlO|.YO3.UOaOcOMOGX2X5O/O]XlXv+#   OXJXTXT % % %XTXTXTXTXT P+%+%+%+%+%+%+%+%+%",
"+%+%+%+%+%+%+%+%+%+%+%+%XKO/O/O/O/O/O/OMOMOpOpOw.Z.MO3O3O3.UOaOcOMOGX2X5O/O]XlXv+#   OXJXTXT % % %XTXTXTXTXT P+%+%+%+%+%+%+%+%+%",
"+%+%+%+%+%+%+%+%+%+%+%XS hO/O/O/O/O/O/OMOMOpOpOw.Z.MO3O3O3.UOaOcOMOGX2X5O/O]XlXv+#   OXJXTXT % % %XTXTXTXTXT.*+%+%+%+%+%+%+%+%+%",
"+%+%+%+%+%+%+%+%+%+%X]XwXR wO/O/O/O/O/OMOMOpOpOw.Z.MO3O3O3.UOaOcOMOGX2X5O/O]XlXv+#   OXJXTXQX)X)X) 3XQXTXTXT.o+%+%+%+%+%+%+%+%+%",
"+%+%+%+%+%+%+%+%+%+%XbOROR nO/O/O/O/O/OMOMOpOpOw.Z.MO3O3O3.UOaOcOZXyXpXj $XQX/ 7o9oc ^O=o<.n.noZ mokX'XTXTXT.o+%+%+%+%+%+%+%+%+%",
"+%+%+%+%+%+%+%+%+%+%X-.3.3oPO/O/O/O/O/ODOTOZX:X8OQOTXA coqocO@.$ i iXEoW.>XXoh 0OFo$ONo]XLO$oi.+ qoB 7XTXTXT.o+%+%+%+%+%+%+%+%+%",
"+%+%+%+%+%+%+%+%+%+%Xz.;.; rO/O/O/o#.%.|X%O,XC ..FOrOB YX^olXD.u.H {O5ovO&..OCoRoR |o]XeO$O$+$ q VOo wXTXTXT.o+%+%+%+%+%+%+%+%+%",
"+%+%+%+%+%+%+%+%+%+%+%.c.c <O/O/O|ok.WOzo-Od./ HOiX}oNoN.zXDoY.H.HO(ov f.. 5OgoR Go]o1OHO$o: qOAo^OooOXTXTXT.o+%+%+%+%+%+%+%+%+%",
"+%+%+%+%+%+%+%+%+%+%+%.c.c AO/O/+.oBOzo( o./OJOioD.AoN vXD.!Xk.Ho{ov.'.I.. WoRX<o]o] pO$ [ q qOj k.Qo#XTXTXT.o+%+%+%+%+%+%+%+%+%",
"+%+%+%+%+%+%+%+%+%+%+%X3 uOt++O/+.oLOzO2./ tOiOiowoNOxXDXDot.HOnovXUXc..o7oRo$ONo]XLO$oi.+ q ~ k k.Qo#XTXTXT.o+%+%+%+%+%+%+%+%+%",
"+%+%+%+%+%+%+%+%+%.9.`.[ u.s nO/+..|OE./.&XnOiO oNX^olXD.u.H {O5ovO&..OCoRoR |o]XeO$O$+$ qO` k k l.Qo#XTXTXT.o+%+%+%+%+%+%+%+%+%",
"+%+%+%+%+%+%+%+%+%OsOsOsOt u.XO/+.X[Od./ HOiX}oNoN.zXDoY.H ]O(ov f.. 5OgoRXxo]o1OHO$o: q.wo^ k l lO;o#X/XTXT.o+%+%+%+%+%+%+%+%+%",
"+%+%+%+%+%+%+%+%+%X OsOs 6 @O{O/+.oB./OJOioDO0oN vXD.!Xk.Ho4ov.'.I.. WoRO#o]o] pO$ [ qX#Oj k k l l No# =XTXT.o+%+%+%+%+%+%+%+%+%",
"+%+%+%+%+%+%+%+%+% So#o# yO*ofO/+.oB tOiOiXaoNOxXDXDot.HXoovXUXc..o7oRo$OVo]XLO$oi.+ q ~ k k l l l No# =XTXT.o+%+%+%+%+%+%+%+%+%",
"+%+%+%+%+%+%+%+%+%+%o#o#o9O*o#O/XfoBXnOi.qoNX^olXD.u.H ,O5ovO&..OCoRoR 2o]XeO$O$+$ qO` k k l l l l No# =XTXT.o+%+%+%+%+%+%+%+%+%",
"+%+%+%+%+%+%+%+%+%+%o#o#ocO* OO/O/o#Or 8oNoN.zXDoY.H ]O(ov f.. 5OgoRXxo]o1OHO$o: q.wo^ k l l l l l No# =XTXT.o+%+%+%+%+%+%+%+%+%",
"+%+%+%+%+%+%+%+%+%+%+%OKo#O*OD nO/ w 'O0oN vXD.!Xk.Ho4ov.'.I.. WoRO#o]o] sO$ [ qX#Oj k k l l l l l No# =XTXT.o+%+%+%+%+%+%+%+%+%",
"+%+%+%+%+%+%+%+%+%+%+%OKXpo+X9 EO/X'+ oNOxXDXDot.HXoovXUXc..o7oRo$OVo].)O$oi.+ q ~ k k l l l l l l No# =XTXT.o+%+%+%+%+%+%+%+%+%",
"+%+%+%+%+%+%+%+%+%+%+%OKOKo[X9XZO/XQOmX(olXD.u.H ,O5ovop..OCoRoR 2o].NO$O$+$ qO` k k l l l l l l l No# =XTXT.o+%+%+%+%+%+%+%+%+%",
"+%+%+%+%+%+%+%+%+%+%+%OKOKo[X9 )O/ OozO1XDoY.H ]O(ov j.. 5OgoRXxo]o5OHO$o: q.wo^ k l l l l l l l l No# =XTXTo/+%+%+%+%+%+%+%+%+%",
"+%+%+%+%+%+%+%+%+%+%+% ; ;.dX9O!O/+.oBXD.!Xk.Ho4ov.'.... WoRO#o]o] sO$ [ qX#Oj k k l l l l l l l l No# =XTXT P+%+%+%+%+%+%+%+%+%",
"+%+%+%+%+%+%+%+%+%+%+%o#o#X0O_.LO/O/ Mo,ot.HXoovXU.P..o7oRo$OVo].)O$oi.+ q ~ k k l l l l l l l l l No# =XTXT P+%+%+%+%+%+%+%+%+%",
"+%+%+%+%+%+%+%+%+%+%+%o#o#XroyO+ *O/X|X+.H ,O5ovop..OCoRoR 2o].NO$ D+$ qO` k k l l l l l l l l l l No# =XTXT P+%+%+%+%+%+%+%+%+%",
"+%+%+%+%+%+%+%+%+%+%+% Z Z+o JO9 nO/ =.( ]O(ov j.. 5OhoRXxo]o5OHO$X7 q.wo^ k l l l l l l l l l l lO}o# =XT g+%+%+%+%+%+%+%+%+%+%",
"+%+%+%+%+%+%+%+%+%+%+%obobX{ R RoSO/XV &o4ov.'....XPoRO#o]o] sO$ > qX#Oj k k l l l l l l l l l l l.Qo#XTXT K+%+%+%+%+%+%+%+%+%+%",
"+%+%+%+%+%+%+%+%+%+%+%.*.*oE R R #O/XfokO:XU.P..XtoRo$OVo].)O$.G.+ q ~ k k l l l l l l l l l l l l.Qo#XTXT K+%+%+%+%+%+%+%+%+%+%",
"+%+%+%+%+%+%+%+%+%+%+%OXOXo8 4 4X~O/O/X|X>op...8oRoR 2o].NO$ D+$ qO` k k l l l l l l l l l l l l l.Qo#XTXTob+%+%+%+%+%+%+%+%+%+%",
"+%+%+%+%+%+%+%+%+%+%+%.K.K L 4 4X&O/O/XAoa.. 5OhoRXxo]o5OHO$X7 q.wo^ k l l l l l l l l lXY N !.QX;Xmo#XTXTO.+%+%+%+%+%+%+%+%+%+%",
"+%+%+%+%+%+%+%+%+%+%+%.EOs.- u uOt++O/O) _..XPoRO#o]o] sO$ > qX#Oj k k l lXY N !.QX;o0oB So#o@ wX|X' =XTXTO.+%+%+%+%+%+%+%+%+%+%",
"+%+%+%+%+%+%+%+%+%+%+%+%o9X  u u.s nO/OD SXFoRo%OVo].)O$.G.+.i 1O} +X;o0oB So# e 9 3X_X/X/XT % % %XTXTXTXT.6+%+%+%+%+%+%+%+%+%+%",
"+%+%+%+%+%+%+%+%+%+%+%+%+%+%+% u u.XO/OMX_ XoRO'OYo~.f.rXHoBoko#oO ; % OXN++XlXv+#   OXJXTXT g nou =XTXTXT.o+%+%+%+%+%+%+%+%+%+%",
"+%+%+%+%+%+%+%+%+%+%+%+%+%+%+% u u+OO/OMXNXGoBoko#oXXAXfX4ODX$OcOMOGX2X5O/O]XlXv+#   OXJXTXTo2o* ;XT g KO..*+%+%+%+%+%+%+%+%+%+%",
"+%+%+%+%+%+%+%+%+%+%+%+%+% FOeXB.c bO/OMODXyX:Ov.Z.MO3O3O3.UOaOcOMOGX2X5O/O]XlXv+#   OXJXT K.oo)o'.0.@ S+%+%+%+%+%+%+%+%+%+%+%+%",
"+%+%+%+%+%+%+%+%+%+%+%+%+%.*.EO8Xh.6O/OMOMOpOpOw.Z.MO3O3O3.UOaOcOMOGX2X5O/O]XlXQoroQ.4.:O.oBo#o#+% SoBo9+%+%+%+%+%+%+%+%+%+%+%+%",
"+%+%+%+%+%+%+%+%+%+%+%+%+%oB.EOfO^+@O/OMOMOpOpOw.Z.MO3O3O3.UOaOcOMOGX_ok I.<o}oB So#o#o# Soco9+%+%+%+%+%+%+%+%+%+%+%+%+%+%+%+%+%",
"+%+%+%+%+%+%+%+%+%+%+%+%+%+%OsOuOfXb wOMOMOpOpOw.Z.MO3O3.Y Ookoc.o.<oBo#o#o#o#ok.*.9oB F.*+%+%+%+%+%+%+%+%+%+%+%+%+%+%+%+%+%+%+%",
"+%+%+%+%+%+%+%+%+%+%+%+%+%+%Os.TOe } SOMOMOpOpXqX) g Q.6oB Mo#o#o#o#oBoBoBoB.#oBO4oHo& co#+%o9+%+%+%+%+%+%+%+%+%+%+%+%+%+%+%+%+%",
"+%+%+%+%+%+%+%+%+%+%+%+%+%+%Os.<.vOu.gos Qor.<oko#o#o#o# MoB.4o'.y.0oro#o#o# C.@ Fo#o#o#o#o#+%+%+%+%+%+%+%+%+%+%+%+%+%+%+%+%+%+%",
"+%+%+%+%+%+%+%+%+%+%+%+%+%+%Os.*oH.a.eo#o#o#o#o# M BoU.m.{.E.m.0o)oMoro# MoBoV MX' 9o#o#o#o# e+%+%+%+%+%+%+%+%+%+%+%+%+%+%+%+%+%",
"+%+%+%+%+%+%+%+%+%+%+%+%+%+%Os.*o;.e.y.*.ooT.4O.oVOs.e Qokox.XoQoT.@oAoBoko#oX =XV woX %XlOQOKOKo# U+%+%+%+%+%+%+%+%+%+%+%+%+%+%",
"+%+%+%+%+%+%+%+%+%+%+%+%+%+%Os.*o# QoF / / / / /oxojo'.loP Po9o*o#oOoX ;XJO[X4 OO[OQXpo# xX0Xg.  a a+%+%+%+%+%+%+%+%+%+%+%+%+%+%",
"+%+%+%+%+%+%+%+%+%+%+%+%+%+%O-.*o#o#.# /okoro9o&o#o#o#o2of E P B gX/  XpXpo#o>X*o|OL.7oCoGoGOy.= a a+%+%+%+%+%+%+%+%+%+%+%+%+%+%",
"+%+%+%+%+%+%+%+%+%+%+%+%+%+%+%.*o#o# Fo;o#o#o#o#o#o#o#o#o#o# ; ;o9OWOIXO.5+XX9O<O6.Vo#o2 Po}.aO7 a a+%+%+%+%+%+%+%+%+%+%+%+%+%+%",
"+%+%+%+%+%+%+%+%+%+%+%+%+%+%+%ojo#o#o#oso#o#o#o#o# e Pos yXVXv.x (oKoI zo=X9X9XdOeOsOsOsOs.SOO.p a a+%+%+%+%+%+%+%+%+%+%+%+%+%+%",
"+%+%+%+%+%+%+%+%+%+%+%+%+%+%+%+%+%o#o#oXo;oBXWXIXiX`.]O*O*O*O>om (oKoI zo=X9X9XhO-oo T.koJo+ u u a a+%+%+%+%+%+%+%+%+%+%+%+%+%+%",
"+%+%+%+%+%+%+%+%+%+%+%+%+%+%+%+%o9o#o#XpOPo6 u u.b :.JO*O*O*O>om (oKoI zo=X9X9XuX9ogogon -o  u u a a+%+%+%+%+%+%+%+%+%+%+%+%+%+%",
"+%+%+%+%+%+%+%+%+%+%+%+%+%+%+%+%+%+%o#XpO7 a u u.b :.JO*O*O*O>om (oKoI zo=X9X9X9X9ogOU Pod.h u u a a+%+%+%+%+%+%+%+%+%+%+%+%+%+%",
"+%+%+%+%+%+%+%+%+%+%+%+%+%+%+%+%+%o9o#XpO7 a u u.b :.JO*O*O*O>.Oo`X=oI zo=X9X9X9X9Oq.<o#o#O- u u a a+%+%+%+%+%+%+%+%+%+%+%+%+%+%",
"+%+%+%+%+%+%+%+%+%+%+%+%+%+%+%+%+%+%+%XpO7 a u u.b :Ol.^X.OKXloXoeo.oI zo=X9X9X9X9OqOuoc.*.y u u a+%+%+%+%+%+%+%+%+%+%+%+%+%+%+%",
"+%+%+%+%+%+%+%+%+%+%+%+%+%+%+%+%+%+%o9XpO7 a uo! *o# U.oo}OeOsOsOs #oI zo=X9X9X9X9ogO~.e b+%Ot+%+%+%+%+%+%+%+%+%+%+%+%+%+%+%+%+%",
"+%+%+%+%+%+%+%+%+%+%+%+%+%+%+%+%+%+%+%+%OW a uXsOsOsOsOsOsOsOsOsOs.0oI zo=X9X9+%+%+%+%+%+%+%+%+%+%+%+%+%+%+%+%+%+%+%+%+%+%+%+%+%",
"+%+%+%+%+%+%+%+%+%+%+%+%+%+%+%+%+%+%+%+%OW a uXsOsOsOs.B.lo/.ooco& =+%+%+%+%+%+%+%+%+%+%+%+%+%+%+%+%+%+%+%+%+%+%+%+%+%+%+%+%+%+%",
"+%+%+%+%+%+%+%+%+%+%+%+%+%+%+%+%+%+%+%+%+% a uOU `oko> ;+#+%+%+%+%+%+%+%+%+%+%+%+%+%+%+%+%+%+%+%+%+%+%+%+%+%+%+%+%+%+%+%+%+%+%+%",
"+%+%+%+%+%+%+%+%+%+%+%+%+%+%+%+%+%+%+%+%oV a u+%X0+%+%+%+%+%+%+%+%+%+%+%+%+%+%+%+%+%+%+%+%+%+%+%+%+%+%+%+%+%+%+%+%+%+%+%+%+%+%+%",
"+%+%+%+%+%+%+%+%+%+%+%+%+%+%+%+%+%+%+%+%+%+%+%+%+%+%+%+%+%+%+%+%+%+%+%+%+%+%+%+%+%+%+%+%+%+%+%+%+%+%+%+%+%+%+%+%+%+%+%+%+%+%+%+%",
"+%+%+%+%+%+%+%+%+%+%+%+%+%+%+%+%+%+%+%+%+%+%+%+%+%+%+%+%+%+%+%+%+%+%+%+%+%+%+%+%+%+%+%+%+%+%+%+%+%+%+%+%+%+%+%+%+%+%+%+%+%+%+%+%",
"+%+%+%+%+%+%+%+%+%+%+%+%+%+%+%+%+%+%+%+%+%+%+%+%+%+%+%+%+%+%+%+%+%+%+%+%+%+%+%+%+%+%+%+%+%+%+%+%+%+%+%+%+%+%+%+%+%+%+%+%+%+%+%+%",
"+%+%+%+%+%+%+%+%+%+%+%+%+%+%+%+%+%+%+%+%+%+%+%+%+%+%+%+%+%+%+%+%+%+%+%+%+%+%+%+%+%+%+%+%+%+%+%+%+%+%+%+%+%+%+%+%+%+%+%+%+%+%+%+%",
"+%+%+%+%+%+%+%+%+%+%+%+%+%+%+%+%+%+%+%+%+%+%+%+%+%+%+%+%+%+%+%+%+%+%+%+%+%+%+%+%+%+%+%+%+%+%+%+%+%+%+%+%+%+%+%+%+%+%+%+%+%+%+%+%"
};
